<svg width="656" height="204" viewBox="0 0 656 204" fill="none" xmlns="http://www.w3.org/2000/svg">
<path d="M366.786 0C368.058 0 368.843 1.39732 368.151 2.47791L322.9 73.7785L276.396 147.054L240.329 203.897V203.934H175.586C174.314 203.934 173.528 202.518 174.221 201.456L301.593 0.745237C301.893 0.279464 302.416 0 302.959 0H366.786Z" fill="currentColor"/>
<path d="M215.996 0H279.823C281.095 0 281.88 1.41595 281.188 2.47791L153.797 203.17C153.498 203.636 152.974 203.916 152.431 203.916H88.6047C87.3326 203.916 86.547 202.5 87.2391 201.438L214.63 0.763868C214.93 0.298095 215.454 0.0186309 215.996 0.0186309V0Z" fill="currentColor"/>
<path d="M158.421 0H192.841C194.113 0 194.899 1.41595 194.207 2.47791L66.8341 203.189C66.5348 203.655 66.0111 203.934 65.4686 203.934H1.62322C0.351181 203.934 -0.434493 202.518 0.257648 201.456L111.917 25.5244C122 9.63219 139.565 0 158.421 0Z" fill="currentColor"/>
<path d="M655.374 2.51356L621.365 56.1148C621.066 56.5805 620.542 56.86 619.999 56.86L417.034 57.0277C416.136 57.0277 415.406 56.3011 415.406 55.4068V1.82421C415.406 0.929929 416.136 0.203323 417.034 0.203323L654.008 0.0356445C655.299 0.0356445 656.066 1.43296 655.392 2.51356H655.374Z" fill="currentColor"/>
<path d="M417.052 73.3338L607.41 73.7437C608.682 73.7437 609.468 75.1596 608.776 76.2216L574.767 129.804C574.468 130.27 573.944 130.568 573.383 130.549L417.034 130.14C416.136 130.14 415.406 129.413 415.406 128.519V74.9361C415.406 74.0418 416.136 73.3152 417.034 73.3152L417.052 73.3338Z" fill="currentColor"/>
<path d="M562.14 149.654L544.687 177.153C534.08 193.865 515.598 204 495.751 204H417.034C416.136 204 415.406 203.273 415.406 202.379V148.778C415.406 147.884 416.136 147.157 417.034 147.157H560.756C562.028 147.157 562.814 148.554 562.121 149.635L562.14 149.654Z" fill="currentColor"/>
<path d="M397.713 203.933H262.577C261.305 203.933 260.52 202.535 261.212 201.455L295.22 147.853C295.519 147.388 296.043 147.108 296.586 147.108H340.621C341.519 147.108 342.248 146.382 342.248 145.487L342.192 74.2985C342.192 74.0005 342.286 73.6837 342.435 73.4229L388.566 0.780882C388.865 0.315109 389.389 0.0356445 389.931 0.0356445H397.582C398.48 0.0356445 399.21 0.762251 399.21 1.65654L399.303 147.108L399.341 202.33C399.341 203.225 398.611 203.951 397.713 203.951V203.933Z" fill="currentColor"/>
</svg>
