<svg xmlns="http://www.w3.org/2000/svg" viewBox="-15 -15 320 305">
  <rect x="-15" y="-15" width="320" height="305" fill="#012296"/>
  <g fill="#ffffff">
    <path d="M211.94,180.55c-6.72-6.62-17.92-10.29-27.01-12.97-28.66-8.46-59.89-12.23-88.82-20.27l12.97,13c3.59,4.56,6.26,14,2.13,18.74-5.26,6.04-5.67-6.77-7.91-10.88-4.28-7.88-26.58-22.48-35.08-27.26-2.39-1.35-19.41-10.23-20.43-9.17-.45,16.44,9.11,39.91,26.96,43.16,7.08,1.29,29.35-3.07,24.83,10.16-1.34,3.93-15.28,3.04-19.05,2.76-26.4-1.93-40.74-21.94-43.11-47.27-.63-6.77-2.44-21.26,7.3-19.79,16.08,4.75,31.57,11.14,47.74,15.66,34.94,9.76,96.4,15.56,125,32.92,4.66,2.83,18.68,11.67,12.14,17.97l-2.81,1.35c-16.15,1.69-32.48,2.52-48.6,4.38-26.95,3.11-58.37,3.41-77.38,25.45,15.78,14.09,35.14,23.58,56.61,24.4,226.19-.99,452.36,1.56,678.37,3.17,42.6.3,85.35-.99,127.79,1.04,2.68.13,19.24-1.09,19.24,1.52-3.27,1.86-10.02,2.41-13.96,2.64-86.29,5.14-177.33-3.31-263.89,2.08-129.21.55-258.39.58-387.61.95-51.9.15-104.89,3.48-156.87,1.13-12.54-.57-23.53-1.62-35.13-6.42-7.15-2.96-38.09-20.32-38.85-27.53.97-6.55,5.93-11.7,10.68-15.93,18.63-16.58,40.67-18.01,64.39-20.8,16.68-1.96,33.62-3.02,50.38-4.18Z"/>
    <path d="M175.58,116.16c32.29,28.35,70.81,50.38,114.81,52.96,170.45-.74,340.85.81,511.1,2.13,43.48.34,87.13-.99,130.43,1v3.11c-11.59.27-23.25-.32-34.85-.04-203.26,5.02-407.31.84-610.84,3.15-46.12-2.91-83.34-27.84-119.29-54.21-2.47-1.81-17.88-12.9-18.25-13.99-2.7-8.03,15.78-3.56,20.09-3.44,30.74.84,61.28,1.62,92.02,3.56l.5,2.64-85.72,3.12Z"/>
    <path d="M517.38,8.09l-154.32-.04c-2.46.04-4.73,1.07-7.19,1.12-40.13.84-80.64.79-120.55,5.16-10.04,1.1-47.91,5.66-54.5,9.91-1.85,1.19-3.53,3.65-5.21,5.18l-34.31,49.31,103.89,7.29-.46,3.17-2.14.98c-38.66-1.39-78.93,2.79-117.23-2.25-20.68-2.72-47.61-8.27-67.4-14.67-5.92-1.91-26.73-8.62-26.38-15.82,1.54-5.93,7.37-6.17,12.59-6.72,15.74-1.64,40.48-3.09,55.81-.78,14.11,2.12,17.42,16.97,25.21,26.72l48.83-63.35c7.2-5.54,21.08-6.19,30.13-7.27,30.03-3.56,60.21-4.28,90.42-5.16,73.5-2.15,146.79,0,220.21,3.07,2.57.46,2.89,1.66,2.59,4.15ZM115.32,75.62c-4.53-5.83-9.53-15.98-17.38-17.41s-28.12-.73-37.2-.28c-4.19.2-8.47,1.86-12.94,1.09.5,1.71,4.1,2.52,5.69,3.13,19.31,7.41,41.36,10.85,61.84,13.47Z"/>
    <path d="M0,148.87c1-9.83,6.48-24.56,11.63-33.04,18.53-30.52,54.36-36.84,87.08-28.26l-.62,2.61c-5.99.28-13.79.1-19.6,1.08-11.46,1.94-5.44,23.11-6.82,30.59-1.09,5.91-10.58-.33-11.36-5.25-1.31-8.25-.02-17.43,6.17-23.3-35.49,4.24-52.56,33.11-57.01,66.09-4.94,36.68-1.58,75.14-4.29,112.07l-1.57,2.58c-1.04.54-3.62-.69-3.62-1.54v-123.63Z"/>
  </g>
</svg>
